<?xml version="1.0" encoding="UTF-8" standalone="no"?>
<!-- Created with Inkscape (http://www.inkscape.org/) -->

<svg
   xmlns:dc="http://purl.org/dc/elements/1.1/"
   xmlns:cc="http://creativecommons.org/ns#"
   xmlns:rdf="http://www.w3.org/1999/02/22-rdf-syntax-ns#"
   xmlns:svg="http://www.w3.org/2000/svg"
   xmlns="http://www.w3.org/2000/svg"
   xmlns:sodipodi="http://sodipodi.sourceforge.net/DTD/sodipodi-0.dtd"
   xmlns:inkscape="http://www.inkscape.org/namespaces/inkscape"
   width="27.954998mm"
   height="10.874873mm"
   viewBox="0 0 27.954998 10.874873"
   version="1.1"
   id="svg8"
   inkscape:version="0.92.4 (f8dce91, 2019-08-02)"
   sodipodi:docname="logo.svg">
  <defs
     id="defs2" />
  <sodipodi:namedview
     id="base"
     pagecolor="#ffffff"
     bordercolor="#666666"
     borderopacity="1.0"
     inkscape:pageopacity="0.0"
     inkscape:pageshadow="2"
     inkscape:zoom="1.979899"
     inkscape:cx="18.878935"
     inkscape:cy="-44.278772"
     inkscape:document-units="mm"
     inkscape:current-layer="svgg"
     showgrid="false"
     inkscape:window-width="1325"
     inkscape:window-height="713"
     inkscape:window-x="35"
     inkscape:window-y="27"
     inkscape:window-maximized="1" />
  <metadata
     id="metadata5">
    <rdf:RDF>
      <cc:Work
         rdf:about="">
        <dc:format>image/svg+xml</dc:format>
        <dc:type
           rdf:resource="http://purl.org/dc/dcmitype/StillImage" />
        <dc:title></dc:title>
      </cc:Work>
    </rdf:RDF>
  </metadata>
  <g
     inkscape:label="Livello 1"
     inkscape:groupmode="layer"
     id="layer1"
     transform="translate(-18.898811,-42.857962)">
    <g
       id="svgg"
       transform="matrix(0.26458333,0,0,0.26458333,18.898811,42.872458)">
      <path
         d="m 37.333,0.236 c 0,0.13 -0.051,0.374 -0.114,0.542 -0.097,0.257 -0.075,0.273 0.14,0.098 0.14,-0.113 0.316,-0.151 0.391,-0.083 0.075,0.068 0.087,-0.014 0.027,-0.182 C 37.716,0.443 37.667,0.237 37.667,0.153 37.667,0.069 37.592,0 37.5,0 37.408,0 37.333,0.106 37.333,0.236 m 0.5,0.014 c 0,0.138 0.083,0.25 0.185,0.25 0.107,0 0.138,0.123 0.073,0.292 -0.075,0.199 -0.056,0.237 0.06,0.122 C 38.343,0.723 38.208,0 37.981,0 37.9,0 37.833,0.112 37.833,0.25 m -1.604,1.617 c -0.045,0.073 -0.021,0.134 0.053,0.136 0.074,10e-4 0.029,0.069 -0.1,0.151 -0.197,0.124 -0.2,0.233 -0.021,0.667 0.197,0.475 0.233,0.494 0.431,0.223 0.185,-0.253 0.167,-0.312 -0.131,-0.423 -0.339,-0.127 -0.339,-0.135 -0.029,-0.37 0.365,-0.276 0.805,-0.333 0.651,-0.084 -0.056,0.091 -0.018,0.166 0.086,0.166 0.104,0 0.164,-0.131 0.133,-0.291 -0.058,-0.301 -0.909,-0.44 -1.073,-0.175 m -0.48,1.135 C 35.69,3.097 35.524,3.155 35.379,3.129 35.115,3.083 35.096,3.138 34.937,4.392 34.84,5.157 34.84,5.156 34.29,5.202 c -0.238,0.019 -0.395,0.096 -0.35,0.169 0.046,0.074 0.172,0.084 0.28,0.022 0.113,-0.065 0.138,-0.049 0.058,0.039 -0.077,0.083 -0.227,0.151 -0.334,0.151 -0.107,0 -0.197,0.207 -0.202,0.459 -0.008,0.491 0.164,0.611 0.314,0.219 0.051,-0.132 0.002,-0.28 -0.107,-0.329 -0.109,-0.05 -0.011,-0.071 0.218,-0.049 0.229,0.023 0.398,0.131 0.377,0.24 C 34.52,6.24 34.611,6.28 34.766,6.221 34.91,6.166 34.965,6.074 34.889,6.018 34.587,5.797 34.69,5.374 35.154,4.929 35.466,4.63 35.605,4.364 35.54,4.189 35.45,3.951 35.474,3.946 35.723,4.149 35.88,4.276 36.046,4.343 36.093,4.296 36.257,4.132 36.312,3.5 36.162,3.5 36.079,3.5 36.051,3.395 36.1,3.267 36.208,2.986 35.901,2.755 35.749,3.002 M 32.667,7.75 C 32.505,7.944 32.504,8.053 32.658,8.24 32.9,8.531 33.28,8.41 33.517,7.968 33.673,7.676 33.656,7.66 33.36,7.819 33.178,7.916 32.985,8.091 32.93,8.206 32.876,8.322 32.871,8.21 32.919,7.958 33.018,7.438 32.963,7.392 32.667,7.75 m -0.44,1 C 32.28,8.887 32.25,9 32.161,9 32.073,9 32,8.938 32,8.861 32,8.785 31.904,8.722 31.786,8.722 c -0.118,0 -0.215,0.132 -0.215,0.294 0,0.161 0.071,0.249 0.157,0.196 0.095,-0.058 0.099,-0.004 0.011,0.137 -0.219,0.351 -0.259,0.818 -0.071,0.818 0.091,0 0.149,-0.057 0.13,-0.125 -0.069,-0.242 0.383,-0.875 0.625,-0.875 0.134,0 0.244,-0.15 0.244,-0.334 0,-0.195 -0.111,-0.333 -0.268,-0.333 -0.17,0 -0.233,0.092 -0.172,0.25 m -0.06,0.816 c 0,0.127 0.112,0.275 0.25,0.328 0.17,0.065 0.25,-0.009 0.25,-0.233 0,-0.18 -0.113,-0.328 -0.25,-0.328 -0.138,0 -0.25,0.105 -0.25,0.233 m -0.641,1.152 c -0.099,0.12 -0.399,0.203 -0.665,0.185 -0.359,-0.025 -0.479,0.038 -0.464,0.24 0.021,0.292 0.41,0.678 0.686,0.682 0.092,0.002 0.06,-0.065 -0.071,-0.148 C 30.753,11.514 30.614,11 30.828,11 c 0.072,0 0.248,0.169 0.39,0.375 l 0.258,0.375 -0.091,-0.375 C 31.335,11.169 31.37,11 31.463,11 c 0.092,0 0.211,-0.113 0.264,-0.25 0.118,-0.308 0.039,-0.321 -0.201,-0.032 m -1.193,1.298 c 0,0.103 -0.152,0.126 -0.375,0.056 -0.361,-0.112 -0.364,-0.104 -0.085,0.208 0.368,0.413 0.084,0.798 -0.399,0.54 -0.169,-0.091 -0.307,-0.12 -0.307,-0.065 0,0.229 0.357,0.745 0.515,0.745 0.094,0 0.129,-0.068 0.078,-0.151 -0.052,-0.083 0.056,-0.112 0.24,-0.064 0.331,0.087 0.345,0.061 0.392,-0.743 0.01,-0.161 0.126,-0.335 0.259,-0.388 0.199,-0.079 0.192,-0.115 -0.038,-0.203 -0.154,-0.059 -0.28,-0.03 -0.28,0.065 m -2.152,2.475 c -0.277,0.171 -0.011,0.341 0.412,0.262 0.178,-0.034 0.417,-0.067 0.532,-0.074 0.115,-0.007 0.208,-0.076 0.208,-0.154 0,-0.182 -0.87,-0.208 -1.152,-0.034 m 0.111,0.475 C 28.131,14.998 28,15.131 28,15.262 c 0,0.32 0.165,0.3 0.442,-0.054 0.126,-0.16 0.22,-0.216 0.207,-0.125 -0.049,0.372 0.03,0.428 0.268,0.191 0.378,-0.379 0.192,-0.47 -0.625,-0.308 m -1.668,2.715 c -0.161,0.094 -0.357,0.131 -0.434,0.083 -0.078,-0.048 -0.227,0.102 -0.332,0.332 -0.231,0.508 -0.247,0.791 -0.036,0.661 0.085,-0.053 0.201,-0.022 0.257,0.069 0.056,0.09 -0.09,0.212 -0.325,0.271 -0.234,0.059 -0.567,0.286 -0.739,0.505 L 24.702,20 H 13.101 C 3.494,20 1.5,19.961 1.5,19.776 1.5,19.419 0.93,19 0.445,19 H 0 v 2.167 c 0,1.952 0.029,2.166 0.292,2.167 0.223,0.001 0.297,0.152 0.315,0.644 0.03,0.818 0.304,1.33 0.817,1.525 0.268,0.102 0.37,0.239 0.304,0.41 -0.137,0.358 0.235,0.754 0.709,0.754 0.383,0 0.518,0.418 0.412,1.279 -0.014,0.107 0.049,0.241 0.139,0.297 0.09,0.055 0.124,0.204 0.076,0.331 -0.097,0.252 0.491,0.515 0.768,0.344 C 3.933,28.855 4,29.044 4,29.389 c 0,0.588 0.206,0.778 0.847,0.778 0.268,0 0.323,0.129 0.339,0.791 0.01,0.436 0.029,0.901 0.042,1.035 0.012,0.134 0.266,0.314 0.564,0.399 0.445,0.129 0.541,0.239 0.541,0.625 0,0.403 0.081,0.483 0.584,0.577 0.568,0.107 0.584,0.131 0.604,0.925 0.034,1.355 -0.037,1.235 0.771,1.294 0.21,0.015 0.295,0.171 0.303,0.562 0.022,1.007 0.211,1.416 0.736,1.599 0.356,0.124 0.47,0.25 0.397,0.44 -0.142,0.37 0.418,0.948 0.8,0.827 0.25,-0.079 0.305,-0.006 0.305,0.405 0,0.275 0.068,0.543 0.151,0.594 0.083,0.052 0.112,0.244 0.064,0.427 C 10.962,40.998 11.046,41 24.981,41 H 39 v -0.644 c 0,-0.466 -0.14,-0.819 -0.508,-1.282 -0.279,-0.352 -0.625,-0.887 -0.769,-1.19 -0.143,-0.303 -0.33,-0.551 -0.415,-0.551 -0.084,0 -0.292,-0.323 -0.461,-0.718 -0.17,-0.396 -0.43,-0.841 -0.578,-0.989 -0.149,-0.149 -0.439,-0.562 -0.645,-0.919 -0.713,-1.238 -1.044,-1.753 -1.666,-2.598 -0.343,-0.468 -0.625,-0.94 -0.625,-1.05 0,-0.11 -0.177,-0.412 -0.394,-0.671 C 32.723,30.129 32.386,29.602 32.191,29.217 31.995,28.833 31.732,28.458 31.606,28.384 31.48,28.31 31.218,27.936 31.024,27.553 30.83,27.17 30.587,26.804 30.484,26.74 30.381,26.676 30.118,26.221 29.9,25.729 c -0.218,-0.493 -0.476,-0.896 -0.573,-0.896 -0.098,0 -0.294,-0.278 -0.436,-0.618 -0.142,-0.34 -0.513,-0.916 -0.824,-1.28 C 27.755,22.571 27.5,22.18 27.5,22.065 27.5,21.951 27.369,21.728 27.208,21.57 27.048,21.412 26.836,21.051 26.738,20.767 26.64,20.482 26.397,20.176 26.197,20.085 25.831,19.92 25.69,19.5 26,19.5 c 0.092,0 0.148,-0.062 0.125,-0.137 -0.023,-0.075 0.183,-0.335 0.458,-0.578 0.275,-0.243 0.409,-0.444 0.297,-0.446 -0.23,-0.006 -0.092,-0.517 0.191,-0.711 0.276,-0.189 -0.111,-0.143 -0.447,0.053 m -0.957,1.986 C 25.569,19.85 25.416,20 25.327,20 c -0.226,0 -0.2,-0.103 0.102,-0.405 0.357,-0.357 0.452,-0.329 0.238,0.072"
         id="path0"
         inkscape:connector-curvature="0"
         style="fill:#045399;fill-rule:evenodd;stroke:none" />
      <path
         d="m 66.167,0.229 c 0,0.473 0.527,1.698 0.904,2.102 0.216,0.23 0.55,0.733 0.742,1.116 0.192,0.383 0.426,0.745 0.52,0.803 0.095,0.058 0.287,0.381 0.427,0.717 0.141,0.337 0.399,0.764 0.573,0.95 0.175,0.186 0.43,0.605 0.566,0.932 0.137,0.327 0.37,0.695 0.519,0.819 0.149,0.123 0.39,0.455 0.535,0.737 0.146,0.281 0.471,0.774 0.723,1.095 0.251,0.321 0.51,0.771 0.576,1 0.065,0.229 0.28,0.604 0.478,0.833 0.197,0.23 0.499,0.679 0.672,1 0.172,0.321 0.445,0.734 0.606,0.917 0.161,0.183 0.409,0.615 0.551,0.958 0.141,0.344 0.34,0.625 0.442,0.625 0.101,0 0.359,0.397 0.574,0.882 0.214,0.485 0.515,0.985 0.667,1.112 0.153,0.126 0.389,0.498 0.526,0.826 0.138,0.329 0.432,0.787 0.654,1.019 0.223,0.233 0.546,0.851 0.719,1.375 l 0.314,0.952 -0.381,0.752 c -0.209,0.414 -0.574,0.982 -0.81,1.263 -0.237,0.282 -0.431,0.601 -0.431,0.711 0,0.109 -0.214,0.46 -0.475,0.779 -0.262,0.318 -0.61,0.842 -0.774,1.163 -0.164,0.321 -0.475,0.795 -0.691,1.054 -0.216,0.259 -0.393,0.564 -0.393,0.678 0,0.114 -0.263,0.514 -0.583,0.889 -0.321,0.375 -0.584,0.758 -0.584,0.851 0,0.093 -0.188,0.393 -0.419,0.667 -0.23,0.273 -0.539,0.785 -0.686,1.137 -0.147,0.351 -0.451,0.864 -0.676,1.14 -0.601,0.735 -1.15,1.563 -1.636,2.466 -0.236,0.44 -0.535,0.841 -0.665,0.89 -0.129,0.05 -0.32,0.348 -0.424,0.663 -0.104,0.315 -0.36,0.777 -0.569,1.027 -0.208,0.25 -0.541,0.773 -0.739,1.163 C 67.322,38.681 67.084,39 66.991,39 c -0.182,0 -0.824,1.374 -0.824,1.764 0,0.202 1.95,0.236 13.416,0.236 C 91.669,41 93,40.974 93,40.738 c 0,-0.144 0.112,-0.374 0.25,-0.512 0.138,-0.137 0.25,-0.185 0.25,-0.107 0,0.079 0.158,0.155 0.351,0.17 0.287,0.021 0.337,-0.048 0.273,-0.381 -0.043,-0.225 -0.013,-0.408 0.067,-0.408 0.08,0 0.126,-0.319 0.102,-0.708 -0.037,-0.609 0.002,-0.705 0.275,-0.681 0.315,0.027 0.916,-0.535 0.926,-0.866 0.004,-0.095 0.231,-0.257 0.505,-0.36 0.391,-0.148 0.492,-0.281 0.465,-0.608 -0.019,-0.231 -0.095,-0.382 -0.169,-0.337 -0.073,0.046 -0.091,0.153 -0.038,0.238 0.053,0.086 0.017,0.155 -0.08,0.155 -0.255,0 -0.217,-0.259 0.073,-0.5 0.138,-0.114 0.252,-0.404 0.255,-0.645 0.004,-0.282 0.167,-0.554 0.459,-0.764 0.356,-0.256 0.404,-0.265 0.224,-0.041 -0.2,0.248 -0.189,0.284 0.092,0.284 0.252,0 0.33,-0.134 0.363,-0.625 0.023,-0.344 0.053,-0.789 0.066,-0.99 0.013,-0.2 0.091,-0.323 0.172,-0.272 0.082,0.05 0.111,0.232 0.066,0.405 -0.059,0.226 0.006,0.315 0.229,0.315 0.365,0 0.691,-0.528 0.65,-1.051 -0.085,-1.063 -0.016,-1.228 0.488,-1.154 0.528,0.077 0.866,-0.246 0.499,-0.478 -0.166,-0.105 -0.172,-0.146 -0.021,-0.148 0.114,-0.001 0.199,-0.059 0.188,-0.127 -0.167,-1.057 0.03,-1.542 0.624,-1.542 0.581,0 0.601,-0.019 0.505,-0.495 -0.113,-0.565 0.21,-0.853 0.79,-0.704 0.311,0.08 0.325,0.058 0.122,-0.189 -0.197,-0.241 -0.19,-0.279 0.054,-0.279 0.236,0 0.273,-0.142 0.229,-0.868 -0.054,-0.862 -0.05,-0.869 0.439,-0.875 0.409,-0.006 0.519,-0.097 0.647,-0.54 0.114,-0.396 0.277,-0.56 0.632,-0.638 0.382,-0.084 0.477,-0.195 0.475,-0.55 -0.002,-0.349 -0.037,-0.391 -0.164,-0.195 -0.097,0.15 -0.162,0.17 -0.164,0.051 -10e-4,-0.109 0.073,-0.245 0.164,-0.301 0.092,-0.057 0.167,-0.356 0.167,-0.666 0,-0.584 0.357,-0.859 0.863,-0.665 0.258,0.099 0.355,-1.757 0.105,-2.007 -0.063,-0.063 -0.033,-0.247 0.068,-0.408 0.286,-0.458 0.036,-0.89 -0.459,-0.796 -0.483,0.093 -0.523,0.051 -0.602,-0.625 -0.048,-0.408 -0.15,-0.515 -0.558,-0.583 -0.409,-0.068 -0.491,-0.154 -0.447,-0.469 0.03,-0.211 -0.019,-0.474 -0.108,-0.583 -0.089,-0.109 -0.138,-0.405 -0.11,-0.657 0.029,-0.252 -0.024,-0.458 -0.118,-0.458 -0.093,0 -0.122,0.123 -0.065,0.274 0.088,0.228 0.063,0.238 -0.147,0.064 -0.138,-0.115 -0.203,-0.287 -0.144,-0.383 0.067,-0.109 -0.022,-0.14 -0.239,-0.084 -0.272,0.071 -0.333,0.023 -0.285,-0.223 0.033,-0.173 -0.029,-0.316 -0.139,-0.317 -0.119,-0.002 -0.1,-0.065 0.05,-0.16 0.212,-0.134 0.215,-0.189 0.017,-0.372 -0.191,-0.178 -0.207,-0.173 -0.094,0.034 0.087,0.161 0.007,0.137 -0.226,-0.067 -0.202,-0.177 -0.362,-0.232 -0.362,-0.125 0,0.106 -0.084,0.192 -0.186,0.192 -0.104,0 -0.148,-0.147 -0.099,-0.333 0.048,-0.183 0.007,-0.333 -0.092,-0.333 -0.098,0 -0.128,-0.051 -0.067,-0.112 0.062,-0.062 0.307,0.07 0.546,0.292 0.396,0.368 0.429,0.374 0.373,0.074 -0.034,-0.181 -0.246,-0.422 -0.473,-0.534 -0.311,-0.155 -0.412,-0.339 -0.415,-0.755 -0.003,-0.498 -0.05,-0.549 -0.504,-0.549 -0.475,0 -0.502,-0.037 -0.544,-0.75 C 99.966,10.077 99.874,9.869 99.341,9.752 98.862,9.647 98.606,9.268 98.703,8.809 98.747,8.596 98.671,8.566 97.958,8.519 97.726,8.504 97.667,8.345 97.667,7.74 97.667,7.276 97.602,7.02 97.5,7.083 97.408,7.14 97.333,7.078 97.333,6.946 97.333,6.814 97.184,6.666 97.001,6.619 96.66,6.529 96.605,6.433 96.422,5.605 96.365,5.342 96.274,5.17 96.221,5.223 96.168,5.276 95.987,5.154 95.818,4.951 95.649,4.749 95.509,4.662 95.506,4.758 95.502,4.855 95.594,5.028 95.708,5.143 95.875,5.312 95.856,5.33 95.609,5.236 95.369,5.145 95.323,5.008 95.401,4.62 95.583,3.708 95.228,2.833 94.675,2.833 94.313,2.833 94.207,2.762 94.241,2.542 94.266,2.381 94.203,2.195 94.101,2.128 93.966,2.038 93.966,2.004 94.102,2.003 94.315,2 94.212,1.197 93.957,0.875 93.867,0.76 93.614,0.667 93.396,0.667 93.111,0.667 93,0.573 93,0.333 93,0.003 92.889,0 79.583,0 68.314,0 66.167,0.037 66.167,0.229 m 27.778,1.26 c 0.028,0.18 -0.035,0.38 -0.14,0.445 C 93.68,2.012 93.661,1.977 93.752,1.831 93.854,1.665 93.809,1.64 93.574,1.73 93.401,1.797 93.313,1.798 93.379,1.732 93.444,1.667 93.409,1.508 93.301,1.378 93.148,1.194 93.158,1.109 93.343,0.994 93.625,0.82 93.875,1.025 93.945,1.489 m 3.222,5.069 c 0.457,0.241 0.592,0.226 0.423,-0.047 -0.06,-0.098 -0.274,-0.177 -0.475,-0.175 -0.35,0.002 -0.348,0.011 0.052,0.222"
         id="path2"
         inkscape:connector-curvature="0"
         style="fill:#04e3fc;fill-rule:evenodd;stroke:none"
         sodipodi:nodetypes="ccsccccccccccscsccccccccscssscscccccsccsssscsccscccccccsccccsccccscccccscccsccccccccscscccccscsccccccccccsscssccccsccccscsccscccccsccccssscccccsccccccc" />
      <path
         d="m 40.049,0.569 c 0.085,0.526 0.59,1.393 1.738,2.982 0.252,0.35 0.609,0.92 0.794,1.267 0.422,0.795 0.896,1.569 1.373,2.242 0.204,0.288 0.538,0.842 0.742,1.232 C 44.9,8.681 45.125,9 45.197,9 c 0.073,0 0.362,0.431 0.645,0.958 0.887,1.657 1.41,2.517 1.771,2.911 0.192,0.21 0.509,0.681 0.704,1.048 0.195,0.366 0.649,1.116 1.01,1.666 0.361,0.55 0.818,1.3 1.016,1.667 0.198,0.367 0.536,0.854 0.75,1.083 1.045,1.118 1.092,4.834 0.062,4.834 -0.077,0 -0.406,0.431 -0.732,0.958 -0.325,0.527 -0.722,1.171 -0.882,1.431 -0.784,1.272 -1.721,2.729 -1.947,3.027 -0.451,0.598 -1.455,2.155 -1.718,2.667 -0.142,0.275 -0.401,0.688 -0.576,0.917 -0.347,0.454 -1.334,2.013 -2.383,3.765 -0.367,0.613 -0.873,1.357 -1.125,1.654 -0.252,0.298 -0.459,0.607 -0.459,0.687 0,0.079 -0.262,0.514 -0.583,0.965 -0.335,0.472 -0.583,1.021 -0.583,1.291 V 41 h 12.25 c 11.889,0 12.25,-0.009 12.25,-0.314 0,-0.173 -0.188,-0.437 -0.417,-0.587 -0.229,-0.15 -0.417,-0.367 -0.417,-0.482 0,-0.115 -0.3,-0.609 -0.666,-1.097 C 62.8,38.032 62.5,37.557 62.5,37.464 c 0,-0.094 -0.225,-0.426 -0.5,-0.739 -0.275,-0.314 -0.5,-0.669 -0.5,-0.791 0,-0.121 -0.262,-0.55 -0.582,-0.952 -0.32,-0.403 -0.582,-0.829 -0.583,-0.948 -10e-4,-0.119 -0.19,-0.404 -0.42,-0.635 -0.231,-0.23 -0.604,-0.784 -0.831,-1.23 -0.226,-0.447 -0.489,-0.86 -0.583,-0.919 -0.095,-0.058 -0.287,-0.379 -0.426,-0.713 -0.14,-0.334 -0.382,-0.731 -0.539,-0.883 -0.275,-0.266 -0.821,-1.086 -1.703,-2.558 -0.229,-0.383 -0.657,-1.067 -0.95,-1.521 -0.516,-0.796 -0.761,-1.158 -1.634,-2.408 -0.7,-1.003 -0.822,-1.383 -0.814,-2.542 0.006,-0.898 0.077,-1.201 0.351,-1.5 0.189,-0.206 0.541,-0.769 0.782,-1.25 C 53.809,17.394 54.07,17 54.149,17 c 0.079,0 0.238,-0.227 0.353,-0.505 0.115,-0.278 0.42,-0.771 0.678,-1.095 0.258,-0.324 0.549,-0.835 0.648,-1.135 0.099,-0.3 0.366,-0.707 0.593,-0.904 0.227,-0.197 0.412,-0.469 0.412,-0.604 0,-0.135 0.215,-0.492 0.478,-0.793 0.263,-0.301 0.636,-0.861 0.831,-1.244 0.194,-0.384 0.424,-0.741 0.512,-0.795 C 58.741,9.871 59,9.416 59.23,8.913 59.46,8.411 59.73,8 59.83,8 59.93,8 60.153,7.671 60.325,7.268 60.498,6.866 60.722,6.485 60.823,6.423 60.925,6.36 61.232,5.865 61.506,5.321 61.78,4.778 62.067,4.333 62.144,4.333 62.22,4.333 62.416,4.037 62.58,3.675 62.743,3.313 63.01,2.873 63.173,2.698 63.336,2.523 63.63,2.066 63.826,1.682 64.021,1.298 64.291,0.942 64.424,0.891 64.558,0.84 64.667,0.618 64.667,0.399 V 0 H 52.312 39.956 l 0.093,0.569"
         id="path3"
         inkscape:connector-curvature="0"
         style="fill:#0474bc;fill-rule:evenodd;stroke:none" />
      <path
         d="m 37.781,0.472 c 0.036,0.214 -0.004,0.346 -0.089,0.294 -0.302,-0.187 -0.566,0.383 -0.453,0.982 0.071,0.382 0.046,0.585 -0.075,0.585 -0.101,0 -0.137,-0.075 -0.081,-0.166 0.156,-0.253 -0.289,-0.19 -0.664,0.094 -0.327,0.247 -0.327,0.251 0.033,0.345 0.307,0.08 0.333,0.143 0.17,0.404 -0.118,0.189 -0.236,0.242 -0.301,0.136 -0.066,-0.106 -0.147,-0.071 -0.209,0.09 -0.056,0.145 -0.033,0.264 0.05,0.264 0.15,0 0.095,0.632 -0.069,0.796 C 36.046,4.343 35.88,4.276 35.723,4.149 35.474,3.946 35.45,3.951 35.54,4.189 35.605,4.364 35.466,4.63 35.154,4.929 34.69,5.374 34.587,5.797 34.889,6.018 34.965,6.074 34.91,6.166 34.766,6.221 34.609,6.281 34.52,6.24 34.544,6.119 34.566,6.005 34.407,5.917 34.181,5.917 33.959,5.917 33.758,6.012 33.735,6.129 33.711,6.246 33.73,6.265 33.776,6.171 33.823,6.077 33.932,6 34.02,6 c 0.095,0 0.088,0.131 -0.016,0.327 -0.097,0.179 -0.165,0.385 -0.153,0.458 0.073,0.436 -0.041,0.696 -0.268,0.609 -0.137,-0.053 -0.25,-0.009 -0.25,0.098 0,0.107 -0.069,0.151 -0.154,0.099 C 33.006,7.484 32.747,8.136 32.901,8.29 32.956,8.345 33,8.304 33,8.2 33,8.097 33.148,7.932 33.33,7.835 33.6,7.691 33.641,7.705 33.56,7.917 33.409,8.311 32.92,8.52 32.689,8.289 32.54,8.14 32.519,8.22 32.601,8.63 c 0.085,0.424 0.052,0.537 -0.158,0.537 -0.145,0 -0.346,0.152 -0.445,0.338 -0.107,0.198 -0.264,0.288 -0.381,0.218 -0.121,-0.072 -0.109,-0.008 0.028,0.162 0.149,0.183 0.164,0.282 0.042,0.282 -0.103,0 -0.187,0.117 -0.187,0.26 0,0.142 0.074,0.214 0.165,0.158 0.094,-0.059 0.122,0.008 0.065,0.156 C 31.676,10.884 31.555,11 31.463,11 31.37,11 31.338,11.169 31.391,11.375 L 31.487,11.75 31.193,11.365 30.9,10.98 30.666,11.418 c -0.202,0.378 -0.201,0.46 0.008,0.606 0.178,0.124 0.109,0.143 -0.257,0.071 -0.382,-0.076 -0.435,-0.059 -0.223,0.069 0.152,0.093 0.251,0.301 0.221,0.461 -0.031,0.16 -0.062,0.394 -0.069,0.519 -0.008,0.144 -0.136,0.196 -0.346,0.141 -0.201,-0.053 -0.292,-0.02 -0.229,0.082 0.064,0.103 -0.022,0.129 -0.222,0.065 -0.226,-0.072 -0.327,-0.026 -0.327,0.149 0,0.139 0.078,0.252 0.172,0.252 0.11,0 0.105,0.068 -0.014,0.187 -0.103,0.103 -0.148,0.291 -0.099,0.417 0.051,0.133 -0.025,0.238 -0.18,0.251 -0.147,0.011 -0.354,0.03 -0.46,0.041 -0.106,0.012 -0.215,0.133 -0.241,0.271 -0.027,0.137 -0.1,0.475 -0.162,0.75 -0.062,0.275 -0.135,0.65 -0.162,0.833 -0.026,0.184 -0.057,0.371 -0.067,0.417 -0.011,0.046 -0.089,-0.036 -0.174,-0.181 -0.125,-0.214 -0.49,-0.276 -0.98,-0.166 -0.035,0.007 0.025,0.119 0.133,0.249 0.147,0.177 0.148,0.264 0.002,0.354 -0.14,0.087 -0.131,0.158 0.034,0.262 0.166,0.106 0.171,0.144 0.018,0.146 -0.115,0.002 -0.209,0.12 -0.209,0.263 0,0.153 -0.085,0.216 -0.208,0.154 -0.115,-0.058 -0.078,0.001 0.082,0.132 0.399,0.327 -0.101,0.814 -0.713,0.694 -0.256,-0.05 -0.316,-0.032 -0.161,0.048 0.291,0.149 0.412,0.545 0.167,0.545 -0.31,0 -0.169,0.42 0.197,0.585 0.2,0.091 0.443,0.397 0.541,0.682 0.098,0.284 0.31,0.645 0.47,0.803 0.161,0.158 0.292,0.381 0.292,0.495 0,0.115 0.255,0.506 0.567,0.87 0.311,0.364 0.682,0.94 0.824,1.28 0.142,0.34 0.338,0.618 0.436,0.618 0.097,0 0.355,0.403 0.573,0.896 0.218,0.492 0.481,0.947 0.584,1.011 0.103,0.064 0.346,0.43 0.54,0.813 0.194,0.383 0.456,0.757 0.582,0.831 0.126,0.074 0.389,0.449 0.585,0.833 0.195,0.385 0.532,0.912 0.748,1.171 0.217,0.259 0.394,0.561 0.394,0.671 0,0.11 0.282,0.582 0.625,1.05 0.622,0.845 0.953,1.36 1.666,2.598 0.206,0.357 0.496,0.77 0.645,0.919 0.148,0.148 0.408,0.593 0.578,0.989 0.169,0.395 0.377,0.718 0.461,0.718 0.085,0 0.272,0.248 0.415,0.551 0.144,0.303 0.49,0.838 0.769,1.19 C 38.86,39.537 39,39.89 39,40.356 39,40.981 39.017,41 39.583,41 c 0.529,0 0.584,-0.044 0.584,-0.471 0,-0.27 0.248,-0.819 0.583,-1.291 0.321,-0.451 0.583,-0.886 0.583,-0.965 0,-0.08 0.207,-0.389 0.459,-0.687 0.252,-0.297 0.758,-1.041 1.125,-1.654 1.049,-1.752 2.036,-3.311 2.383,-3.765 0.175,-0.229 0.434,-0.642 0.576,-0.917 0.263,-0.512 1.267,-2.069 1.718,-2.667 0.226,-0.298 1.163,-1.755 1.947,-3.027 0.16,-0.26 0.557,-0.904 0.882,-1.431 0.326,-0.527 0.655,-0.958 0.732,-0.958 1.03,0 0.983,-3.716 -0.062,-4.834 -0.214,-0.229 -0.552,-0.716 -0.75,-1.083 -0.198,-0.367 -0.655,-1.117 -1.016,-1.667 -0.361,-0.55 -0.815,-1.3 -1.01,-1.666 C 48.122,13.55 47.805,13.079 47.613,12.869 47.252,12.475 46.729,11.615 45.842,9.958 45.559,9.431 45.27,9 45.197,9 45.125,9 44.9,8.681 44.696,8.292 44.492,7.902 44.158,7.348 43.954,7.06 43.477,6.387 43.003,5.613 42.581,4.818 42.396,4.471 42.039,3.901 41.787,3.551 40.639,1.962 40.134,1.095 40.049,0.569 39.957,0.002 39.953,0 39.043,0 38.159,0 38.134,0.013 38.233,0.406 38.289,0.63 38.26,0.859 38.169,0.915 38.074,0.974 38.046,0.907 38.103,0.759 38.158,0.616 38.125,0.5 38.03,0.5 37.935,0.5 37.826,0.406 37.787,0.292 37.747,0.177 37.745,0.258 37.781,0.472 M 95.5,4.474 c 0,0.189 0.648,0.767 0.747,0.668 0.111,-0.111 -0.399,-0.809 -0.59,-0.809 -0.086,0 -0.157,0.064 -0.157,0.141 M 32.667,9.661 c 0,0.224 -0.08,0.298 -0.25,0.233 -0.138,-0.053 -0.25,-0.201 -0.25,-0.328 0,-0.128 0.112,-0.233 0.25,-0.233 0.137,0 0.25,0.148 0.25,0.328 m -3.276,2.763 c -0.15,0.391 0.012,0.437 0.242,0.068 0.128,-0.206 0.14,-0.325 0.03,-0.325 -0.095,0 -0.218,0.115 -0.272,0.257 m -0.224,2.54 c 0,0.082 -0.497,0.573 -0.513,0.506 -0.111,-0.464 -0.075,-0.565 0.199,-0.565 0.173,0 0.314,0.027 0.314,0.059 m -3.738,4.631 C 25.127,19.897 25.101,20 25.327,20 c 0.089,0 0.242,-0.15 0.34,-0.333 0.214,-0.401 0.119,-0.429 -0.238,-0.072"
         id="path4"
         inkscape:connector-curvature="0"
         style="fill:#046cb4;fill-rule:evenodd;stroke:none"
         sodipodi:nodetypes="cccsccccccssccccccsccscccscssccscscccssccscccccccccccccsssccccsccccccccsccccscccscsscsssccsccscsccssscscccccccscsscccscccccscccscccsscccsscccscccsccscc" />
      <path
         d="m 65.504,0.458 c 0.004,0.594 0.573,1.844 1.08,2.375 0.219,0.23 0.51,0.685 0.648,1.014 0.137,0.328 0.373,0.7 0.526,0.826 0.152,0.127 0.446,0.608 0.652,1.07 0.206,0.462 0.536,0.983 0.733,1.158 0.196,0.174 0.357,0.416 0.357,0.536 0,0.12 0.225,0.474 0.5,0.788 0.275,0.313 0.5,0.647 0.5,0.743 0,0.095 0.255,0.507 0.566,0.915 0.312,0.408 0.725,1.07 0.918,1.471 0.352,0.733 0.834,1.475 1.548,2.386 0.212,0.27 0.482,0.719 0.602,0.999 0.119,0.28 0.36,0.66 0.534,0.845 0.174,0.186 0.428,0.605 0.564,0.932 0.137,0.326 0.366,0.692 0.51,0.811 0.144,0.119 0.401,0.526 0.57,0.903 0.17,0.378 0.499,0.889 0.732,1.136 0.845,0.897 0.766,1.946 -0.235,3.098 -0.262,0.301 -0.476,0.619 -0.476,0.707 0,0.088 -0.262,0.503 -0.583,0.924 -0.321,0.42 -0.583,0.865 -0.583,0.988 0,0.124 -0.201,0.464 -0.447,0.755 -0.245,0.292 -0.564,0.738 -0.708,0.991 -0.374,0.657 -1.255,1.992 -1.753,2.656 -0.234,0.313 -0.426,0.659 -0.426,0.769 0,0.11 -0.231,0.492 -0.515,0.848 -0.283,0.356 -0.617,0.892 -0.741,1.19 -0.125,0.298 -0.304,0.541 -0.399,0.541 -0.095,0 -0.36,0.37 -0.589,0.822 -0.229,0.452 -0.501,0.874 -0.604,0.938 -0.104,0.064 -0.367,0.519 -0.585,1.012 -0.218,0.492 -0.453,0.895 -0.523,0.895 -0.07,0 -0.332,0.365 -0.582,0.81 -0.25,0.446 -0.577,0.911 -0.726,1.035 -0.324,0.269 -1.069,1.901 -1.069,2.342 0,0.673 0.587,0.338 0.826,-0.471 0.127,-0.432 0.395,-0.938 0.595,-1.125 0.201,-0.188 0.498,-0.604 0.662,-0.924 0.163,-0.321 0.468,-0.788 0.676,-1.038 0.209,-0.25 0.464,-0.712 0.568,-1.027 0.104,-0.315 0.295,-0.613 0.424,-0.663 0.13,-0.049 0.429,-0.45 0.665,-0.89 0.486,-0.903 1.035,-1.731 1.636,-2.466 0.225,-0.276 0.529,-0.789 0.676,-1.14 0.147,-0.352 0.456,-0.864 0.686,-1.137 0.231,-0.274 0.419,-0.574 0.419,-0.667 0,-0.093 0.263,-0.476 0.584,-0.851 0.32,-0.375 0.583,-0.775 0.583,-0.889 0,-0.114 0.177,-0.419 0.393,-0.678 0.216,-0.259 0.527,-0.733 0.691,-1.054 0.164,-0.321 0.512,-0.845 0.774,-1.163 0.261,-0.319 0.475,-0.67 0.475,-0.779 0,-0.11 0.194,-0.429 0.431,-0.711 0.236,-0.281 0.601,-0.849 0.81,-1.263 l 0.381,-0.752 -0.314,-0.952 C 77.968,19.523 77.645,18.905 77.422,18.672 77.2,18.44 76.906,17.982 76.768,17.653 76.631,17.325 76.395,16.953 76.242,16.827 76.09,16.7 75.789,16.2 75.575,15.715 75.36,15.23 75.102,14.833 75.001,14.833 c -0.102,0 -0.301,-0.281 -0.442,-0.625 -0.142,-0.343 -0.39,-0.775 -0.551,-0.958 -0.161,-0.183 -0.434,-0.596 -0.606,-0.917 -0.173,-0.321 -0.475,-0.77 -0.672,-1 C 72.532,11.104 72.317,10.729 72.252,10.5 72.186,10.271 71.927,9.821 71.676,9.5 71.424,9.179 71.099,8.686 70.953,8.405 70.808,8.123 70.567,7.791 70.418,7.668 70.269,7.544 70.036,7.176 69.899,6.849 69.763,6.522 69.508,6.103 69.333,5.917 69.159,5.731 68.901,5.304 68.76,4.967 68.62,4.631 68.428,4.308 68.333,4.25 68.239,4.192 68.003,3.83 67.809,3.447 67.614,3.064 67.249,2.514 66.997,2.225 66.745,1.936 66.441,1.317 66.321,0.85 66.072,-0.123 65.497,-0.399 65.504,0.458 m 27.663,0.699 c 0,0.086 0.076,0.204 0.169,0.261 0.093,0.058 0.127,0.174 0.075,0.258 -0.053,0.085 0.033,0.104 0.191,0.044 0.209,-0.081 0.249,-0.051 0.15,0.111 C 93.658,1.982 93.679,2.012 93.82,1.925 93.971,1.832 93.926,1.693 93.65,1.399 93.237,0.96 93.167,0.924 93.167,1.157"
         id="path5"
         inkscape:connector-curvature="0"
         style="fill:#04c8ec;fill-rule:evenodd;stroke:none"
         sodipodi:nodetypes="ccccscscsccccccscccscscccsccssccsccsccccscccccscssscsccccccccscscccccccccccscccccccccc" />
      <path
         d="m 64.667,0.399 c 0,0.219 -0.109,0.441 -0.243,0.492 -0.133,0.051 -0.403,0.407 -0.598,0.791 -0.196,0.384 -0.49,0.841 -0.653,1.016 -0.163,0.175 -0.43,0.615 -0.593,0.977 -0.164,0.362 -0.36,0.658 -0.436,0.658 -0.077,0 -0.364,0.445 -0.638,0.988 C 61.232,5.865 60.925,6.36 60.823,6.423 60.722,6.485 60.498,6.866 60.325,7.268 60.153,7.671 59.93,8 59.83,8 59.73,8 59.46,8.411 59.23,8.913 59,9.416 58.741,9.871 58.654,9.925 c -0.088,0.054 -0.318,0.411 -0.512,0.795 -0.195,0.383 -0.568,0.943 -0.831,1.244 -0.263,0.301 -0.478,0.658 -0.478,0.793 0,0.135 -0.185,0.407 -0.412,0.604 -0.227,0.197 -0.494,0.604 -0.593,0.904 -0.099,0.3 -0.39,0.811 -0.648,1.135 -0.258,0.324 -0.563,0.817 -0.678,1.095 C 54.387,16.773 54.228,17 54.149,17 c -0.079,0 -0.34,0.394 -0.581,0.875 -0.241,0.481 -0.593,1.044 -0.782,1.25 -0.274,0.299 -0.345,0.602 -0.351,1.5 -0.008,1.159 0.114,1.539 0.814,2.542 0.873,1.25 1.118,1.612 1.634,2.408 0.293,0.454 0.721,1.138 0.95,1.521 0.882,1.472 1.428,2.292 1.703,2.558 0.157,0.152 0.399,0.549 0.539,0.883 0.139,0.334 0.331,0.655 0.426,0.713 0.094,0.059 0.357,0.472 0.583,0.919 0.227,0.446 0.6,1 0.831,1.23 0.23,0.231 0.419,0.516 0.42,0.635 10e-4,0.119 0.263,0.545 0.583,0.948 0.32,0.402 0.582,0.831 0.582,0.952 0,0.122 0.225,0.477 0.5,0.791 0.275,0.313 0.5,0.645 0.5,0.739 0,0.093 0.3,0.568 0.667,1.056 0.366,0.488 0.666,0.982 0.666,1.097 0,0.115 0.188,0.332 0.417,0.482 0.229,0.15 0.417,0.414 0.417,0.587 0,0.173 0.112,0.314 0.25,0.314 0.318,0 0.322,-0.614 0.008,-1.167 -0.13,-0.229 -0.441,-0.81 -0.691,-1.291 -0.25,-0.482 -0.522,-0.875 -0.604,-0.875 -0.082,0 -0.294,-0.328 -0.471,-0.728 -0.177,-0.401 -0.436,-0.823 -0.576,-0.939 -0.139,-0.116 -0.392,-0.52 -0.562,-0.897 -0.17,-0.377 -0.507,-0.868 -0.748,-1.09 -0.242,-0.223 -0.44,-0.498 -0.44,-0.613 0,-0.114 -0.189,-0.432 -0.42,-0.707 -0.231,-0.274 -0.564,-0.824 -0.741,-1.221 -0.176,-0.397 -0.475,-0.853 -0.663,-1.012 -0.188,-0.16 -0.342,-0.398 -0.342,-0.529 0,-0.131 -0.258,-0.576 -0.573,-0.989 -0.315,-0.412 -0.69,-0.977 -0.833,-1.254 -0.144,-0.278 -0.356,-0.565 -0.471,-0.638 -0.116,-0.073 -0.393,-0.532 -0.617,-1.019 -0.223,-0.487 -0.494,-0.937 -0.601,-1 -0.108,-0.063 -0.357,-0.433 -0.554,-0.823 -0.197,-0.389 -0.423,-0.708 -0.502,-0.708 -0.079,0 -0.342,-0.405 -0.584,-0.901 -0.242,-0.495 -0.551,-0.942 -0.686,-0.994 -0.463,-0.178 -0.311,-1.403 0.254,-2.047 0.275,-0.313 0.5,-0.666 0.5,-0.785 0,-0.118 0.178,-0.382 0.395,-0.586 0.218,-0.205 0.536,-0.687 0.707,-1.071 0.171,-0.385 0.481,-0.836 0.688,-1.003 0.207,-0.167 0.377,-0.402 0.377,-0.523 0,-0.12 0.3,-0.668 0.666,-1.217 0.367,-0.549 0.667,-1.071 0.667,-1.16 0,-0.089 0.158,-0.304 0.351,-0.479 0.194,-0.174 0.525,-0.66 0.737,-1.078 0.212,-0.418 0.5,-0.854 0.638,-0.97 0.139,-0.115 0.298,-0.415 0.353,-0.668 0.056,-0.252 0.31,-0.687 0.565,-0.966 0.255,-0.28 0.568,-0.762 0.695,-1.072 0.128,-0.31 0.403,-0.7 0.613,-0.867 0.21,-0.167 0.381,-0.401 0.381,-0.519 0,-0.119 0.3,-0.657 0.667,-1.197 0.366,-0.539 0.666,-1.071 0.666,-1.182 0,-0.111 0.18,-0.373 0.399,-0.583 C 64.567,2.67 65.561,0 64.917,0 c -0.153,0 -0.25,0.155 -0.25,0.399"
         id="path6"
         inkscape:connector-curvature="0"
         style="fill:#0494d0;fill-rule:evenodd;stroke:none" />
      <path
         d="m 65.167,0.475 c 0,0.567 -1.041,2.618 -1.602,3.157 -0.219,0.21 -0.399,0.472 -0.399,0.583 0,0.111 -0.3,0.643 -0.666,1.182 -0.367,0.54 -0.667,1.078 -0.667,1.197 0,0.118 -0.171,0.352 -0.381,0.519 -0.21,0.167 -0.485,0.557 -0.613,0.867 -0.127,0.31 -0.44,0.792 -0.695,1.072 -0.255,0.279 -0.509,0.714 -0.565,0.966 -0.055,0.253 -0.214,0.553 -0.353,0.668 -0.138,0.116 -0.426,0.552 -0.638,0.97 -0.212,0.418 -0.543,0.904 -0.737,1.078 -0.193,0.175 -0.351,0.39 -0.351,0.479 0,0.089 -0.3,0.611 -0.667,1.16 -0.366,0.549 -0.666,1.097 -0.666,1.217 0,0.121 -0.17,0.356 -0.377,0.523 -0.207,0.167 -0.517,0.618 -0.688,1.003 -0.171,0.384 -0.489,0.866 -0.707,1.071 C 54.178,18.391 54,18.655 54,18.773 c 0,0.119 -0.225,0.472 -0.5,0.785 -0.565,0.644 -0.717,1.869 -0.254,2.047 0.135,0.052 0.444,0.499 0.686,0.994 0.242,0.496 0.505,0.901 0.584,0.901 0.079,0 0.305,0.319 0.502,0.708 0.197,0.39 0.446,0.76 0.554,0.823 0.107,0.063 0.378,0.513 0.601,1 0.224,0.487 0.501,0.946 0.617,1.019 0.115,0.073 0.327,0.36 0.471,0.638 0.143,0.277 0.518,0.842 0.833,1.254 0.315,0.413 0.573,0.858 0.573,0.989 0,0.131 0.154,0.369 0.342,0.529 0.188,0.159 0.487,0.615 0.663,1.012 0.177,0.397 0.51,0.947 0.741,1.221 0.231,0.275 0.42,0.593 0.42,0.707 0,0.115 0.198,0.39 0.44,0.613 0.241,0.222 0.578,0.713 0.748,1.09 0.17,0.377 0.423,0.781 0.562,0.897 0.14,0.116 0.399,0.538 0.576,0.939 0.177,0.4 0.389,0.728 0.471,0.728 0.082,0 0.354,0.393 0.604,0.875 0.25,0.481 0.561,1.062 0.691,1.291 0.13,0.23 0.238,0.586 0.239,0.792 0.002,0.206 0.078,0.375 0.169,0.375 0.092,0 0.167,-0.141 0.167,-0.313 0,-0.441 0.745,-2.073 1.069,-2.342 0.149,-0.124 0.476,-0.589 0.726,-1.035 0.25,-0.445 0.512,-0.81 0.582,-0.81 0.07,0 0.305,-0.403 0.523,-0.895 0.218,-0.493 0.481,-0.948 0.585,-1.012 0.103,-0.064 0.375,-0.486 0.604,-0.938 0.229,-0.452 0.494,-0.822 0.589,-0.822 0.095,0 0.274,-0.243 0.399,-0.541 0.124,-0.298 0.458,-0.834 0.741,-1.19 0.284,-0.356 0.515,-0.738 0.515,-0.848 0,-0.11 0.192,-0.456 0.426,-0.769 0.498,-0.664 1.379,-1.999 1.753,-2.656 0.144,-0.253 0.463,-0.699 0.708,-0.991 0.246,-0.291 0.447,-0.631 0.447,-0.755 0,-0.123 0.262,-0.568 0.583,-0.988 0.321,-0.421 0.583,-0.836 0.583,-0.924 0,-0.088 0.214,-0.406 0.476,-0.707 1.001,-1.152 1.08,-2.201 0.235,-3.098 -0.233,-0.247 -0.562,-0.758 -0.732,-1.136 -0.169,-0.377 -0.426,-0.784 -0.57,-0.903 -0.144,-0.119 -0.373,-0.485 -0.51,-0.811 -0.136,-0.327 -0.39,-0.746 -0.564,-0.932 -0.174,-0.185 -0.415,-0.565 -0.534,-0.845 -0.12,-0.28 -0.39,-0.729 -0.602,-0.999 C 72.818,12.829 72.336,12.087 71.984,11.354 71.791,10.953 71.378,10.291 71.066,9.883 70.755,9.475 70.5,9.063 70.5,8.968 70.5,8.872 70.275,8.538 70,8.225 69.725,7.911 69.5,7.557 69.5,7.437 69.5,7.317 69.339,7.075 69.143,6.901 68.946,6.726 68.616,6.205 68.41,5.743 68.204,5.281 67.91,4.8 67.758,4.673 67.605,4.547 67.369,4.175 67.232,3.847 67.094,3.518 66.803,3.063 66.584,2.833 66.077,2.302 65.508,1.052 65.504,0.458 65.502,0.206 65.425,0 65.333,0 65.242,0 65.167,0.214 65.167,0.475"
         id="path7"
         inkscape:connector-curvature="0"
         style="fill:#04b4de;fill-rule:evenodd;stroke:none" />
    </g>
  </g>
</svg>
